<mxfile host="app.diagrams.net" modified="2021-10-13T10:36:33.648Z" agent="5.0 (Windows NT 10.0; Win64; x64) AppleWebKit/537.36 (KHTML, like Gecko) Chrome/94.0.4606.81 Safari/537.36" etag="y2i8mgRR6Mg8gwPOIX75" version="15.5.2" type="github">
  <diagram id="n1Kd7mgc5YQMKmwRAHjP" name="Page-1">
    <mxGraphModel dx="2879" dy="774" grid="1" gridSize="10" guides="1" tooltips="1" connect="1" arrows="1" fold="1" page="1" pageScale="1" pageWidth="850" pageHeight="1100" math="0" shadow="0">
      <root>
        <mxCell id="0" />
        <mxCell id="1" parent="0" />
        <mxCell id="fhp89jPQApcbtoAtmjny-34" value="" style="group" vertex="1" connectable="0" parent="1">
          <mxGeometry x="40" y="220" width="584.9999999999999" height="260" as="geometry" />
        </mxCell>
        <mxCell id="fhp89jPQApcbtoAtmjny-50" value="" style="group" vertex="1" connectable="0" parent="fhp89jPQApcbtoAtmjny-34">
          <mxGeometry width="584.9999999999999" height="260" as="geometry" />
        </mxCell>
        <mxCell id="fhp89jPQApcbtoAtmjny-42" value="" style="verticalLabelPosition=bottom;verticalAlign=top;html=1;shape=mxgraph.basic.rect;fillColor2=none;strokeWidth=1;size=20;indent=5;fontSize=18;fillColor=#b0e3e6;strokeColor=#0e8088;" vertex="1" parent="fhp89jPQApcbtoAtmjny-50">
          <mxGeometry x="-375" y="-60" width="959.9999999999999" height="320" as="geometry" />
        </mxCell>
        <mxCell id="fhp89jPQApcbtoAtmjny-32" value="" style="rounded=0;whiteSpace=wrap;html=1;fillColor=#e1d5e7;strokeColor=#9673a6;" vertex="1" parent="fhp89jPQApcbtoAtmjny-50">
          <mxGeometry width="210" height="160" as="geometry" />
        </mxCell>
        <mxCell id="fhp89jPQApcbtoAtmjny-33" value="&lt;span style=&quot;font-size: 18px&quot;&gt;WASM Service in &lt;br&gt;Fluence Node&lt;/span&gt;" style="text;html=1;align=center;verticalAlign=middle;resizable=0;points=[];autosize=1;strokeColor=none;fillColor=none;" vertex="1" parent="fhp89jPQApcbtoAtmjny-50">
          <mxGeometry x="30" y="160" width="150" height="40" as="geometry" />
        </mxCell>
        <mxCell id="fhp89jPQApcbtoAtmjny-5" value="Persistent Storage" style="outlineConnect=0;dashed=0;verticalLabelPosition=bottom;verticalAlign=top;align=center;html=1;shape=mxgraph.aws3.generic_database;fillColor=#7D7C7C;gradientColor=none;" vertex="1" parent="1">
          <mxGeometry x="410" y="15.5" width="49.5" height="64.5" as="geometry" />
        </mxCell>
        <mxCell id="fhp89jPQApcbtoAtmjny-3" value="IdentityLinkRouter" style="outlineConnect=0;dashed=0;verticalLabelPosition=bottom;verticalAlign=top;align=center;html=1;shape=mxgraph.aws3.traditional_server;fillColor=#7D7C7C;gradientColor=none;" vertex="1" parent="1">
          <mxGeometry x="120" y="245" width="50" height="75" as="geometry" />
        </mxCell>
        <mxCell id="fhp89jPQApcbtoAtmjny-21" style="edgeStyle=orthogonalEdgeStyle;rounded=0;orthogonalLoop=1;jettySize=auto;html=1;startArrow=none;startFill=0;endArrow=classic;endFill=1;" edge="1" parent="1" source="fhp89jPQApcbtoAtmjny-6" target="fhp89jPQApcbtoAtmjny-10">
          <mxGeometry relative="1" as="geometry" />
        </mxCell>
        <mxCell id="fhp89jPQApcbtoAtmjny-22" style="edgeStyle=orthogonalEdgeStyle;rounded=0;orthogonalLoop=1;jettySize=auto;html=1;startArrow=none;startFill=0;endArrow=classic;endFill=1;" edge="1" parent="1" source="fhp89jPQApcbtoAtmjny-6" target="fhp89jPQApcbtoAtmjny-8">
          <mxGeometry relative="1" as="geometry">
            <Array as="points">
              <mxPoint x="690" y="282" />
              <mxPoint x="690" y="118" />
            </Array>
          </mxGeometry>
        </mxCell>
        <mxCell id="fhp89jPQApcbtoAtmjny-25" style="edgeStyle=orthogonalEdgeStyle;rounded=0;orthogonalLoop=1;jettySize=auto;html=1;startArrow=none;startFill=0;endArrow=classic;endFill=1;entryX=0.094;entryY=0.583;entryDx=0;entryDy=0;entryPerimeter=0;" edge="1" parent="1" source="fhp89jPQApcbtoAtmjny-6" target="fhp89jPQApcbtoAtmjny-24">
          <mxGeometry relative="1" as="geometry">
            <mxPoint x="1070" y="260" as="targetPoint" />
            <Array as="points">
              <mxPoint x="690" y="282" />
              <mxPoint x="690" y="555" />
            </Array>
          </mxGeometry>
        </mxCell>
        <mxCell id="fhp89jPQApcbtoAtmjny-8" value="Github" style="dashed=0;outlineConnect=0;html=1;align=center;labelPosition=center;verticalLabelPosition=bottom;verticalAlign=top;shape=mxgraph.weblogos.github" vertex="1" parent="1">
          <mxGeometry x="816" y="80" width="75" height="75" as="geometry" />
        </mxCell>
        <mxCell id="fhp89jPQApcbtoAtmjny-10" value="Twitter" style="shape=image;html=1;verticalAlign=top;verticalLabelPosition=bottom;labelBackgroundColor=#ffffff;imageAspect=0;aspect=fixed;image=https://cdn3.iconfinder.com/data/icons/social-media-black-white-2/512/BW_Twitter_glyph_svg-128.png" vertex="1" parent="1">
          <mxGeometry x="823" y="248.5" width="68" height="68" as="geometry" />
        </mxCell>
        <mxCell id="fhp89jPQApcbtoAtmjny-11" value="Discord" style="shape=image;html=1;verticalAlign=top;verticalLabelPosition=bottom;labelBackgroundColor=#ffffff;imageAspect=0;aspect=fixed;image=https://cdn4.iconfinder.com/data/icons/logos-brands-5/24/discord-128.png" vertex="1" parent="1">
          <mxGeometry x="816.5" y="380" width="68" height="68" as="geometry" />
        </mxCell>
        <mxCell id="fhp89jPQApcbtoAtmjny-24" value="ETC" style="ellipse;shape=cloud;whiteSpace=wrap;html=1;" vertex="1" parent="1">
          <mxGeometry x="813.5" y="520" width="80" height="60" as="geometry" />
        </mxCell>
        <mxCell id="fhp89jPQApcbtoAtmjny-43" value="Peer-to-Peer Network (Controlled by AQUA)" style="text;html=1;align=center;verticalAlign=middle;resizable=0;points=[];autosize=1;strokeColor=none;fillColor=none;fontSize=18;" vertex="1" parent="1">
          <mxGeometry x="-40.000769230769265" y="490" width="370" height="30" as="geometry" />
        </mxCell>
        <mxCell id="fhp89jPQApcbtoAtmjny-47" value="" style="group" vertex="1" connectable="0" parent="1">
          <mxGeometry x="-280" y="220" width="215" height="200" as="geometry" />
        </mxCell>
        <mxCell id="fhp89jPQApcbtoAtmjny-48" value="" style="rounded=0;whiteSpace=wrap;html=1;fillColor=#fad9d5;strokeColor=#ae4132;" vertex="1" parent="fhp89jPQApcbtoAtmjny-47">
          <mxGeometry width="210" height="160" as="geometry" />
        </mxCell>
        <mxCell id="fhp89jPQApcbtoAtmjny-49" value="&lt;span style=&quot;font-size: 18px&quot;&gt;Browser Service &lt;br&gt;Connected via FluenceJS&lt;/span&gt;" style="text;html=1;align=center;verticalAlign=middle;resizable=0;points=[];autosize=1;strokeColor=none;fillColor=none;" vertex="1" parent="fhp89jPQApcbtoAtmjny-47">
          <mxGeometry x="-5" y="160" width="220" height="40" as="geometry" />
        </mxCell>
        <mxCell id="fhp89jPQApcbtoAtmjny-45" value="&lt;font style=&quot;font-size: 12px&quot;&gt;Browser App&lt;/font&gt;" style="sketch=0;pointerEvents=1;shadow=0;dashed=0;html=1;strokeColor=none;fillColor=#434445;aspect=fixed;labelPosition=center;verticalLabelPosition=bottom;verticalAlign=top;align=center;outlineConnect=0;shape=mxgraph.vvd.web_browser;fontSize=18;" vertex="1" parent="fhp89jPQApcbtoAtmjny-47">
          <mxGeometry x="58.20000000000004" y="27.5" width="98.59" height="70" as="geometry" />
        </mxCell>
        <mxCell id="fhp89jPQApcbtoAtmjny-51" value="" style="group" vertex="1" connectable="0" parent="1">
          <mxGeometry x="330" y="220" width="225" height="200" as="geometry" />
        </mxCell>
        <mxCell id="fhp89jPQApcbtoAtmjny-35" value="" style="group" vertex="1" connectable="0" parent="fhp89jPQApcbtoAtmjny-51">
          <mxGeometry width="225" height="200" as="geometry" />
        </mxCell>
        <mxCell id="fhp89jPQApcbtoAtmjny-27" value="" style="rounded=0;whiteSpace=wrap;html=1;fillColor=#fff2cc;strokeColor=#d6b656;" vertex="1" parent="fhp89jPQApcbtoAtmjny-35">
          <mxGeometry width="210" height="160" as="geometry" />
        </mxCell>
        <mxCell id="fhp89jPQApcbtoAtmjny-31" value="&lt;font style=&quot;font-size: 18px&quot;&gt;NodeJS Service Connected&lt;br&gt;via FluenceJS&lt;/font&gt;" style="text;html=1;align=center;verticalAlign=middle;resizable=0;points=[];autosize=1;strokeColor=none;fillColor=none;" vertex="1" parent="fhp89jPQApcbtoAtmjny-35">
          <mxGeometry x="-15" y="160" width="240" height="40" as="geometry" />
        </mxCell>
        <mxCell id="fhp89jPQApcbtoAtmjny-6" value="IdentityLinkService" style="outlineConnect=0;dashed=0;verticalLabelPosition=bottom;verticalAlign=top;align=center;html=1;shape=mxgraph.aws3.traditional_server;fillColor=#7D7C7C;gradientColor=none;" vertex="1" parent="fhp89jPQApcbtoAtmjny-51">
          <mxGeometry x="80" y="25" width="50" height="75" as="geometry" />
        </mxCell>
        <mxCell id="fhp89jPQApcbtoAtmjny-18" style="edgeStyle=orthogonalEdgeStyle;rounded=0;orthogonalLoop=1;jettySize=auto;html=1;entryX=1;entryY=0.5;entryDx=0;entryDy=0;entryPerimeter=0;endArrow=none;endFill=0;startArrow=classic;startFill=1;exitX=0;exitY=0.5;exitDx=0;exitDy=0;" edge="1" parent="1" source="fhp89jPQApcbtoAtmjny-11" target="fhp89jPQApcbtoAtmjny-6">
          <mxGeometry relative="1" as="geometry">
            <mxPoint x="770" y="304" as="sourcePoint" />
            <mxPoint x="620" y="292.5" as="targetPoint" />
            <Array as="points">
              <mxPoint x="690" y="414" />
              <mxPoint x="690" y="282" />
            </Array>
          </mxGeometry>
        </mxCell>
        <mxCell id="fhp89jPQApcbtoAtmjny-26" style="edgeStyle=orthogonalEdgeStyle;rounded=0;orthogonalLoop=1;jettySize=auto;html=1;startArrow=none;startFill=0;endArrow=classic;endFill=1;" edge="1" parent="1" source="fhp89jPQApcbtoAtmjny-6" target="fhp89jPQApcbtoAtmjny-5">
          <mxGeometry relative="1" as="geometry" />
        </mxCell>
        <mxCell id="fhp89jPQApcbtoAtmjny-52" style="edgeStyle=orthogonalEdgeStyle;rounded=0;orthogonalLoop=1;jettySize=auto;html=1;fontSize=12;startArrow=none;startFill=0;endArrow=classic;endFill=1;" edge="1" parent="1" source="fhp89jPQApcbtoAtmjny-3" target="fhp89jPQApcbtoAtmjny-6">
          <mxGeometry relative="1" as="geometry" />
        </mxCell>
        <mxCell id="fhp89jPQApcbtoAtmjny-54" style="edgeStyle=orthogonalEdgeStyle;rounded=0;orthogonalLoop=1;jettySize=auto;html=1;fontSize=12;startArrow=none;startFill=0;endArrow=classic;endFill=1;" edge="1" parent="1" source="fhp89jPQApcbtoAtmjny-45" target="fhp89jPQApcbtoAtmjny-3">
          <mxGeometry relative="1" as="geometry" />
        </mxCell>
      </root>
    </mxGraphModel>
  </diagram>
</mxfile>
